# This file uses centimeters as units for non-parametric coordinates.

v 0.516023 -0.001568 0.006064
v 0.002767 0.001783 0.006866
v 0.109244 0.031195 -0.227155
v 0.109489 0.058179 -0.192212
v 0.109738 0.079574 -0.137797
v 0.109964 0.093286 -0.069239
v 0.110146 0.097973 0.006754
v 0.110266 0.093176 0.082741
v 0.110312 0.079364 0.151284
v 0.110280 0.057890 0.205675
v 0.110173 0.030856 0.240588
v 0.110002 0.000907 0.252607
v 0.109782 -0.029024 0.240554
v 0.109536 -0.056007 0.205611
v 0.109288 -0.077402 0.151196
v 0.109062 -0.091114 0.082637
v 0.108880 -0.095801 0.006645
v 0.108760 -0.091004 -0.069342
v 0.108714 -0.077193 -0.137885
v 0.108746 -0.055719 -0.192276
v 0.108853 -0.028684 -0.227189
v 0.109024 0.001264 -0.239208
v 0.409007 0.029238 -0.227624
v 0.409253 0.056222 -0.192681
v 0.409501 0.077617 -0.138266
v 0.409727 0.091329 -0.069707
v 0.409909 0.096016 0.006285
v 0.410029 0.091219 0.082272
v 0.410075 0.077407 0.150815
v 0.410044 0.055934 0.205206
v 0.409937 0.028899 0.240119
v 0.409765 -0.001049 0.252138
v 0.409546 -0.030980 0.240085
v 0.409300 -0.057964 0.205142
v 0.409052 -0.079359 0.150727
v 0.408826 -0.093071 0.082169
v 0.408644 -0.097758 0.006176
v 0.408524 -0.092961 -0.069810
v 0.408478 -0.079149 -0.138354
v 0.408509 -0.057676 -0.192744
v 0.408616 -0.030641 -0.227658
v 0.408788 -0.000693 -0.239677
v 0.209856 0.092644 -0.083647
v 0.210067 0.097320 0.006597
v 0.210215 0.092513 0.096837
v 0.210287 0.078692 0.178237
v 0.210275 0.057211 0.242831
v 0.210182 0.030172 0.284296
v 0.210014 0.000222 0.298572
v 0.209791 -0.029708 0.284262
v 0.209532 -0.056686 0.242767
v 0.209263 -0.078074 0.178149
v 0.209012 -0.091777 0.096733
v 0.208802 -0.096453 0.006489
v 0.208653 -0.091646 -0.083750
v 0.208581 -0.077825 -0.165151
v 0.208593 -0.056344 -0.229745
v 0.208687 -0.029305 -0.271209
v 0.208854 0.000645 -0.285485
v 0.209078 0.030575 -0.271176
v 0.209337 0.057553 -0.229681
v 0.209605 0.078941 -0.165063
v 0.309778 0.091992 -0.083803
v 0.309988 0.096668 0.006441
v 0.310136 0.091861 0.096680
v 0.310208 0.078040 0.178081
v 0.310197 0.056559 0.242675
v 0.310103 0.029520 0.284139
v 0.309936 -0.000430 0.298415
v 0.309712 -0.030360 0.284106
v 0.309453 -0.057339 0.242611
v 0.309185 -0.078726 0.177993
v 0.308933 -0.092429 0.096577
v 0.308723 -0.097106 0.006333
v 0.308574 -0.092298 -0.083906
v 0.308503 -0.078478 -0.165307
v 0.308514 -0.056996 -0.229901
v 0.308608 -0.029957 -0.271366
v 0.308775 -0.000007 -0.285642
v 0.308999 0.029922 -0.271332
v 0.309258 0.056901 -0.229837
v 0.309526 0.078289 -0.165219
v 0.027070 0.048934 -0.028322
v 0.027155 0.051257 0.006721
v 0.027209 0.048883 0.041762
v 0.027227 0.042045 0.073370
v 0.027208 0.031413 0.098451
v 0.027152 0.018026 0.114550
v 0.027067 0.003196 0.120092
v 0.026959 -0.011627 0.114534
v 0.026839 -0.024990 0.098419
v 0.026720 -0.035586 0.073326
v 0.026613 -0.042378 0.041711
v 0.026528 -0.044701 0.006668
v 0.026474 -0.042327 -0.028373
v 0.026455 -0.035489 -0.059980
v 0.026475 -0.024857 -0.085061
v 0.026530 -0.011470 -0.101161
v 0.026616 0.003360 -0.106703
v 0.026724 0.018182 -0.101144
v 0.026843 0.031546 -0.085030
v 0.026962 0.042142 -0.059937
v 0.074312 0.078664 -0.055178
v 0.074462 0.082597 0.006801
v 0.074559 0.078574 0.068775
v 0.074594 0.066989 0.124678
v 0.074565 0.048975 0.169038
v 0.074474 0.026296 0.197513
v 0.074329 0.001173 0.207314
v 0.074146 -0.023937 0.197484
v 0.073941 -0.046574 0.168984
v 0.073736 -0.064523 0.124604
v 0.073549 -0.076028 0.068688
v 0.073400 -0.079961 0.006710
v 0.073303 -0.075938 -0.055264
v 0.073267 -0.064353 -0.111167
v 0.073297 -0.046339 -0.155528
v 0.073388 -0.023660 -0.184002
v 0.073532 0.001463 -0.193804
v 0.073716 0.026573 -0.183974
v 0.073920 0.049210 -0.155474
v 0.074126 0.067159 -0.111094
v 0.444190 -0.051329 -0.164855
v 0.444286 -0.027428 -0.194864
v 0.444439 -0.000950 -0.205194
v 0.444632 0.025513 -0.194834
v 0.444848 0.049370 -0.164798
v 0.445064 0.068287 -0.118026
v 0.445261 0.080411 -0.059096
v 0.445418 0.084556 0.006223
v 0.445520 0.080317 0.071537
v 0.445558 0.068107 0.130454
v 0.445527 0.049122 0.177205
v 0.445431 0.025221 0.207214
v 0.445279 -0.001257 0.217544
v 0.445085 -0.027719 0.207184
v 0.444870 -0.051577 0.177148
v 0.444653 -0.070493 0.130376
v 0.444456 -0.082618 0.071446
v 0.444299 -0.086763 0.006127
v 0.444197 -0.082523 -0.059187
v 0.444159 -0.070313 -0.118104
v 0.480000 -0.035185 -0.104274
v 0.480066 -0.019079 -0.123643
v 0.480170 -0.001237 -0.130311
v 0.480299 0.016596 -0.123624
v 0.480443 0.032674 -0.104236
v 0.480586 0.045423 -0.074046
v 0.480715 0.053594 -0.036009
v 0.480817 0.056389 0.006152
v 0.480883 0.053533 0.048309
v 0.480905 0.045306 0.086337
v 0.480882 0.032514 0.116513
v 0.480815 0.016408 0.135882
v 0.480712 -0.001434 0.142549
v 0.480582 -0.019267 0.135862
v 0.480438 -0.035345 0.116475
v 0.480295 -0.048094 0.086285
v 0.480166 -0.056265 0.048248
v 0.480064 -0.059060 0.006087
v 0.479998 -0.056204 -0.036071
v 0.479976 -0.047977 -0.074098
vt 0.500000 0.312500
vt 0.500000 0.688440
vt 0.475000 0.563127
vt 0.462500 0.563127
vt 0.450000 0.563127
vt 0.437500 0.563127
vt 0.425000 0.563127
vt 0.412500 0.563127
vt 0.400000 0.563127
vt 0.387500 0.563127
vt 0.625000 0.563127
vt 0.375000 0.563127
vt 0.612500 0.563127
vt 0.600000 0.563127
vt 0.587500 0.563127
vt 0.575000 0.563127
vt 0.562500 0.563127
vt 0.550000 0.563127
vt 0.537500 0.563127
vt 0.525000 0.563127
vt 0.512500 0.563127
vt 0.500000 0.563127
vt 0.487500 0.563127
vt 0.475000 0.437813
vt 0.462500 0.437813
vt 0.450000 0.437813
vt 0.437500 0.437813
vt 0.425000 0.437813
vt 0.412500 0.437813
vt 0.400000 0.437813
vt 0.387500 0.437813
vt 0.625000 0.437813
vt 0.375000 0.437813
vt 0.612500 0.437813
vt 0.600000 0.437813
vt 0.587500 0.437813
vt 0.575000 0.437813
vt 0.562500 0.437813
vt 0.550000 0.437813
vt 0.537500 0.437813
vt 0.525000 0.437813
vt 0.512500 0.437813
vt 0.500000 0.437813
vt 0.487500 0.437813
vt 0.437500 0.521355
vt 0.425000 0.521355
vt 0.412500 0.521355
vt 0.400000 0.521355
vt 0.387500 0.521355
vt 0.625000 0.521355
vt 0.375000 0.521355
vt 0.612500 0.521355
vt 0.600000 0.521355
vt 0.587500 0.521355
vt 0.575000 0.521355
vt 0.562500 0.521355
vt 0.550000 0.521355
vt 0.537500 0.521355
vt 0.525000 0.521355
vt 0.512500 0.521355
vt 0.500000 0.521355
vt 0.487500 0.521355
vt 0.475000 0.521355
vt 0.462500 0.521355
vt 0.450000 0.521355
vt 0.437500 0.479584
vt 0.425000 0.479584
vt 0.412500 0.479584
vt 0.400000 0.479584
vt 0.387500 0.479584
vt 0.625000 0.479584
vt 0.375000 0.479584
vt 0.612500 0.479584
vt 0.600000 0.479584
vt 0.587500 0.479584
vt 0.575000 0.479584
vt 0.562500 0.479584
vt 0.550000 0.479584
vt 0.537500 0.479584
vt 0.525000 0.479584
vt 0.512500 0.479584
vt 0.500000 0.479584
vt 0.487500 0.479584
vt 0.475000 0.479584
vt 0.462500 0.479584
vt 0.450000 0.479584
vt 0.437500 0.646669
vt 0.425000 0.646669
vt 0.412500 0.646669
vt 0.400000 0.646669
vt 0.387500 0.646669
vt 0.625000 0.646669
vt 0.375000 0.646669
vt 0.612500 0.646669
vt 0.600000 0.646669
vt 0.587500 0.646669
vt 0.575000 0.646669
vt 0.562500 0.646669
vt 0.550000 0.646669
vt 0.537500 0.646669
vt 0.525000 0.646669
vt 0.512500 0.646669
vt 0.500000 0.646669
vt 0.487500 0.646669
vt 0.475000 0.646669
vt 0.462500 0.646669
vt 0.450000 0.646669
vt 0.437500 0.604898
vt 0.425000 0.604898
vt 0.412500 0.604898
vt 0.400000 0.604898
vt 0.387500 0.604898
vt 0.625000 0.604898
vt 0.375000 0.604898
vt 0.612500 0.604898
vt 0.600000 0.604898
vt 0.587500 0.604898
vt 0.575000 0.604898
vt 0.562500 0.604898
vt 0.550000 0.604898
vt 0.537500 0.604898
vt 0.525000 0.604898
vt 0.512500 0.604898
vt 0.500000 0.604898
vt 0.487500 0.604898
vt 0.475000 0.604898
vt 0.462500 0.604898
vt 0.450000 0.604898
vt 0.512500 0.396042
vt 0.500000 0.396042
vt 0.487500 0.396042
vt 0.475000 0.396042
vt 0.462500 0.396042
vt 0.450000 0.396042
vt 0.437500 0.396042
vt 0.425000 0.396042
vt 0.412500 0.396042
vt 0.400000 0.396042
vt 0.387500 0.396042
vt 0.625000 0.396042
vt 0.375000 0.396042
vt 0.612500 0.396042
vt 0.600000 0.396042
vt 0.587500 0.396042
vt 0.575000 0.396042
vt 0.562500 0.396042
vt 0.550000 0.396042
vt 0.537500 0.396042
vt 0.525000 0.396042
vt 0.512500 0.354271
vt 0.500000 0.354271
vt 0.487500 0.354271
vt 0.475000 0.354271
vt 0.462500 0.354271
vt 0.450000 0.354271
vt 0.437500 0.354271
vt 0.425000 0.354271
vt 0.412500 0.354271
vt 0.400000 0.354271
vt 0.387500 0.354271
vt 0.625000 0.354271
vt 0.375000 0.354271
vt 0.612500 0.354271
vt 0.600000 0.354271
vt 0.587500 0.354271
vt 0.575000 0.354271
vt 0.562500 0.354271
vt 0.550000 0.354271
vt 0.537500 0.354271
vt 0.525000 0.354271
vn 0.999977 -0.006527 -0.001973
vn 0.833994 0.484544 0.263953
vn 0.898420 0.277748 0.340144
vn 0.771113 0.611986 0.175665
vn 0.729814 0.678154 0.086475
vn 0.715868 0.698235 -0.000910
vn 0.729511 0.678235 -0.088379
vn 0.770493 0.612144 -0.177822
vn 0.833038 0.484782 -0.266523
vn 0.897143 0.278074 -0.343234
vn 0.925595 -0.005836 -0.378470
vn 0.893412 -0.289374 -0.343624
vn 0.826607 -0.495298 -0.267208
vn 0.762411 -0.621931 -0.178695
vn 0.720582 -0.687589 -0.089352
vn 0.706690 -0.707521 -0.001913
vn 0.720909 -0.687735 0.085504
vn 0.763079 -0.622220 0.174793
vn 0.827625 -0.495710 0.263267
vn 0.894740 -0.289842 0.339754
vn 0.927048 -0.006258 0.374891
vn -0.263939 0.864850 -0.427049
vn -0.412576 0.615531 -0.671493
vn -0.772480 0.400565 -0.492769
vn -0.657448 0.659114 -0.365146
vn -0.165594 0.953891 -0.250343
vn -0.557722 0.796519 -0.233462
vn -0.112300 0.986890 -0.115921
vn -0.496679 0.860619 -0.112447
vn -0.095342 0.995444 0.000902
vn -0.476429 0.879211 0.001624
vn -0.111922 0.986713 0.117773
vn -0.496567 0.860252 0.115707
vn -0.164776 0.953508 0.252331
vn -0.557395 0.795777 0.236748
vn -0.262524 0.864200 0.429230
vn -0.656713 0.658038 0.368393
vn -0.410306 0.614577 0.673754
vn -0.771139 0.399445 0.495770
vn -0.519070 0.002913 0.854727
vn -0.830499 0.004010 0.557006
vn -0.418347 -0.609998 0.672969
vn -0.779653 -0.388618 0.491037
vn -0.273818 -0.861276 0.428051
vn -0.675092 -0.642601 0.362374
vn -0.177226 -0.951626 0.250994
vn -0.583906 -0.777996 0.231897
vn -0.124801 -0.985333 0.116374
vn -0.528007 -0.841741 0.112615
vn -0.108331 -0.994115 -0.000513
vn -0.509527 -0.860455 0.000428
vn -0.125171 -0.985174 -0.117320
vn -0.528103 -0.841803 -0.111692
vn -0.178020 -0.951297 -0.251680
vn -0.584192 -0.778119 -0.230761
vn -0.275176 -0.860755 -0.428228
vn -0.675752 -0.642748 -0.360880
vn -0.420524 -0.609264 -0.672277
vn -0.780914 -0.388565 -0.489071
vn -0.521948 0.003881 -0.852968
vn -0.832182 0.004640 -0.554483
vn 0.239731 0.869863 -0.431123
vn 0.381332 0.621696 -0.684163
vn 0.158448 0.660502 -0.733915
vn 0.088502 0.894123 -0.438989
vn 0.147564 0.956553 -0.251457
vn 0.042157 0.967636 -0.248804
vn 0.097994 0.988374 -0.116246
vn 0.016606 0.993400 -0.113491
vn 0.082471 0.996593 0.000566
vn 0.008479 0.999964 0.000708
vn 0.098363 0.988213 0.117302
vn 0.016958 0.993237 0.114861
vn 0.148358 0.956218 0.252264
vn 0.042926 0.967288 0.250022
vn 0.241093 0.869329 0.431441
vn 0.089861 0.893541 0.439898
vn 0.383527 0.620940 0.683623
vn 0.160747 0.659614 0.734213
vn 0.486566 -0.003664 0.873636
vn 0.208325 -0.001917 0.978058
vn 0.375427 -0.626741 0.682826
vn 0.152135 -0.662582 0.733376
vn 0.229744 -0.872985 0.430251
vn 0.078193 -0.895237 0.438677
vn 0.135868 -0.958425 0.250921
vn 0.030293 -0.968116 0.248663
vn 0.085453 -0.989578 0.115899
vn 0.003987 -0.993536 0.113451
vn 0.069452 -0.997585 -0.000853
vn -0.004578 -0.999989 -0.000716
vn 0.085078 -0.989404 -0.117649
vn 0.003634 -0.993370 -0.114902
vn 0.135054 -0.958046 -0.252800
vn 0.029518 -0.967754 -0.250163
vn 0.228331 -0.872336 -0.432313
vn 0.076814 -0.894603 -0.440210
vn 0.373141 -0.625777 -0.684959
vn 0.149797 -0.661592 -0.734750
vn 0.483648 -0.002672 -0.875259
vn 0.205190 -0.000785 -0.978722
vn 0.004578 0.999989 0.000716
vn -0.003987 0.993536 -0.113451
vn -0.003635 0.993370 0.114901
vn -0.029518 0.967754 0.250163
vn -0.076814 0.894603 0.440210
vn -0.149797 0.661589 0.734752
vn -0.205190 0.000783 0.978722
vn -0.158448 -0.660502 0.733915
vn -0.088502 -0.894123 0.438989
vn -0.042157 -0.967636 0.248803
vn -0.016606 -0.993400 0.113491
vn -0.008479 -0.999964 -0.000708
vn -0.016958 -0.993237 -0.114861
vn -0.042926 -0.967288 -0.250023
vn -0.089861 -0.893541 -0.439897
vn -0.160747 -0.659616 -0.734212
vn -0.208325 0.001914 -0.978058
vn -0.152135 0.662581 -0.733377
vn -0.078192 0.895237 -0.438677
vn -0.030293 0.968116 -0.248663
vn -0.655073 0.755564 0.001768
vn -0.669304 0.737662 -0.088809
vn -0.999995 0.002262 0.002145
vn -0.669053 0.737450 0.092387
vn -0.712642 0.675947 0.187718
vn -0.783799 0.550587 0.287251
vn -0.864371 0.330275 0.379184
vn -0.906825 0.007142 0.421446
vn -0.873241 -0.312326 0.374036
vn -0.800882 -0.528365 0.281813
vn -0.735315 -0.652302 0.183885
vn -0.694373 -0.713940 0.090201
vn -0.680994 -0.732288 0.000742
vn -0.694600 -0.713916 -0.088623
vn -0.735758 -0.652311 -0.182073
vn -0.801595 -0.528419 -0.279675
vn -0.874313 -0.312298 -0.371547
vn -0.908147 0.007613 -0.418583
vn -0.865501 0.331131 -0.375846
vn -0.784576 0.551347 -0.283651
vn -0.713130 0.676431 -0.184083
vn 0.745101 -0.419773 -0.518281
vn 0.631719 -0.676836 -0.377920
vn 0.804532 -0.004921 -0.593889
vn 0.750566 0.410619 -0.517729
vn 0.640551 0.669008 -0.376992
vn 0.544030 0.804023 -0.239957
vn 0.484229 0.867167 -0.116374
vn 0.464295 0.885680 -0.000278
vn 0.484603 0.867047 0.115714
vn 0.544813 0.803784 0.238978
vn 0.641820 0.668650 0.375467
vn 0.752391 0.410120 0.515470
vn 0.806714 -0.005599 0.590915
vn 0.747011 -0.420518 0.514916
vn 0.633077 -0.677447 0.374538
vn 0.534300 -0.811144 0.237843
vn 0.473254 -0.873456 0.114480
vn 0.452691 -0.891666 -0.001542
vn 0.472852 -0.873258 -0.117609
vn 0.533456 -0.810740 -0.241091
f 1/1/1 153/160/2 154/162/3
f 1/1/1 152/159/4 153/160/2
f 1/1/1 151/158/5 152/159/4
f 1/1/1 150/157/6 151/158/5
f 1/1/1 149/156/7 150/157/6
f 1/1/1 148/155/8 149/156/7
f 1/1/1 147/154/9 148/155/8
f 1/1/1 146/153/10 147/154/9
f 1/1/1 145/152/11 146/153/10
f 1/1/1 144/151/12 145/152/11
f 1/1/1 143/150/13 144/151/12
f 1/1/1 162/170/14 143/150/13
f 1/1/1 161/169/15 162/170/14
f 1/1/1 160/168/16 161/169/15
f 1/1/1 159/167/17 160/168/16
f 1/1/1 158/166/18 159/167/17
f 1/1/1 157/165/19 158/166/18
f 1/1/1 156/164/20 157/165/19
f 1/1/1 155/163/21 156/164/20
f 1/1/1 154/161/3 155/163/21
f 4/4/22 3/3/23 120/126/24 121/127/25
f 5/5/26 4/4/22 121/127/25 122/128/27
f 6/6/28 5/5/26 122/128/27 103/108/29
f 7/7/30 6/6/28 103/108/29 104/109/31
f 8/8/32 7/7/30 104/109/31 105/110/33
f 9/9/34 8/8/32 105/110/33 106/111/35
f 10/10/36 9/9/34 106/111/35 107/112/37
f 11/12/38 10/10/36 107/112/37 108/114/39
f 12/13/40 11/11/38 108/113/39 109/115/41
f 13/14/42 12/13/40 109/115/41 110/116/43
f 14/15/44 13/14/42 110/116/43 111/117/45
f 15/16/46 14/15/44 111/117/45 112/118/47
f 16/17/48 15/16/46 112/118/47 113/119/49
f 17/18/50 16/17/48 113/119/49 114/120/51
f 18/19/52 17/18/50 114/120/51 115/121/53
f 19/20/54 18/19/52 115/121/53 116/122/55
f 20/21/56 19/20/54 116/122/55 117/123/57
f 21/22/58 20/21/56 117/123/57 118/124/59
f 22/23/60 21/22/58 118/124/59 119/125/61
f 3/3/23 22/23/60 119/125/61 120/126/24
f 24/25/62 23/24/63 80/84/64 81/85/65
f 25/26/66 24/25/62 81/85/65 82/86/67
f 26/27/68 25/26/66 82/86/67 63/66/69
f 27/28/70 26/27/68 63/66/69 64/67/71
f 28/29/72 27/28/70 64/67/71 65/68/73
f 29/30/74 28/29/72 65/68/73 66/69/75
f 30/31/76 29/30/74 66/69/75 67/70/77
f 31/33/78 30/31/76 67/70/77 68/72/79
f 32/34/80 31/32/78 68/71/79 69/73/81
f 33/35/82 32/34/80 69/73/81 70/74/83
f 34/36/84 33/35/82 70/74/83 71/75/85
f 35/37/86 34/36/84 71/75/85 72/76/87
f 36/38/88 35/37/86 72/76/87 73/77/89
f 37/39/90 36/38/88 73/77/89 74/78/91
f 38/40/92 37/39/90 74/78/91 75/79/93
f 39/41/94 38/40/92 75/79/93 76/80/95
f 40/42/96 39/41/94 76/80/95 77/81/97
f 41/43/98 40/42/96 77/81/97 78/82/99
f 42/44/100 41/43/98 78/82/99 79/83/101
f 23/24/63 42/44/100 79/83/101 80/84/64
f 44/46/102 43/45/103 6/6/28 7/7/30
f 45/47/104 44/46/102 7/7/30 8/8/32
f 46/48/105 45/47/104 8/8/32 9/9/34
f 47/49/106 46/48/105 9/9/34 10/10/36
f 48/51/107 47/49/106 10/10/36 11/12/38
f 49/52/108 48/50/107 11/11/38 12/13/40
f 50/53/109 49/52/108 12/13/40 13/14/42
f 51/54/110 50/53/109 13/14/42 14/15/44
f 52/55/111 51/54/110 14/15/44 15/16/46
f 53/56/112 52/55/111 15/16/46 16/17/48
f 54/57/113 53/56/112 16/17/48 17/18/50
f 55/58/114 54/57/113 17/18/50 18/19/52
f 56/59/115 55/58/114 18/19/52 19/20/54
f 57/60/116 56/59/115 19/20/54 20/21/56
f 58/61/117 57/60/116 20/21/56 21/22/58
f 59/62/118 58/61/117 21/22/58 22/23/60
f 60/63/119 59/62/118 22/23/60 3/3/23
f 61/64/120 60/63/119 3/3/23 4/4/22
f 62/65/121 61/64/120 4/4/22 5/5/26
f 43/45/103 62/65/121 5/5/26 6/6/28
f 64/67/71 63/66/69 43/45/103 44/46/102
f 65/68/73 64/67/71 44/46/102 45/47/104
f 66/69/75 65/68/73 45/47/104 46/48/105
f 67/70/77 66/69/75 46/48/105 47/49/106
f 68/72/79 67/70/77 47/49/106 48/51/107
f 69/73/81 68/71/79 48/50/107 49/52/108
f 70/74/83 69/73/81 49/52/108 50/53/109
f 71/75/85 70/74/83 50/53/109 51/54/110
f 72/76/87 71/75/85 51/54/110 52/55/111
f 73/77/89 72/76/87 52/55/111 53/56/112
f 74/78/91 73/77/89 53/56/112 54/57/113
f 75/79/93 74/78/91 54/57/113 55/58/114
f 76/80/95 75/79/93 55/58/114 56/59/115
f 77/81/97 76/80/95 56/59/115 57/60/116
f 78/82/99 77/81/97 57/60/116 58/61/117
f 79/83/101 78/82/99 58/61/117 59/62/118
f 80/84/64 79/83/101 59/62/118 60/63/119
f 81/85/65 80/84/64 60/63/119 61/64/120
f 82/86/67 81/85/65 61/64/120 62/65/121
f 63/66/69 82/86/67 62/65/121 43/45/103
f 84/88/122 83/87/123 2/2/124
f 85/89/125 84/88/122 2/2/124
f 86/90/126 85/89/125 2/2/124
f 87/91/127 86/90/126 2/2/124
f 88/93/128 87/91/127 2/2/124
f 89/94/129 88/92/128 2/2/124
f 90/95/130 89/94/129 2/2/124
f 91/96/131 90/95/130 2/2/124
f 92/97/132 91/96/131 2/2/124
f 93/98/133 92/97/132 2/2/124
f 94/99/134 93/98/133 2/2/124
f 95/100/135 94/99/134 2/2/124
f 96/101/136 95/100/135 2/2/124
f 97/102/137 96/101/136 2/2/124
f 98/103/138 97/102/137 2/2/124
f 99/104/139 98/103/138 2/2/124
f 100/105/140 99/104/139 2/2/124
f 101/106/141 100/105/140 2/2/124
f 102/107/142 101/106/141 2/2/124
f 83/87/123 102/107/142 2/2/124
f 104/109/31 103/108/29 83/87/123 84/88/122
f 105/110/33 104/109/31 84/88/122 85/89/125
f 106/111/35 105/110/33 85/89/125 86/90/126
f 107/112/37 106/111/35 86/90/126 87/91/127
f 108/114/39 107/112/37 87/91/127 88/93/128
f 109/115/41 108/113/39 88/92/128 89/94/129
f 110/116/43 109/115/41 89/94/129 90/95/130
f 111/117/45 110/116/43 90/95/130 91/96/131
f 112/118/47 111/117/45 91/96/131 92/97/132
f 113/119/49 112/118/47 92/97/132 93/98/133
f 114/120/51 113/119/49 93/98/133 94/99/134
f 115/121/53 114/120/51 94/99/134 95/100/135
f 116/122/55 115/121/53 95/100/135 96/101/136
f 117/123/57 116/122/55 96/101/136 97/102/137
f 118/124/59 117/123/57 97/102/137 98/103/138
f 119/125/61 118/124/59 98/103/138 99/104/139
f 120/126/24 119/125/61 99/104/139 100/105/140
f 121/127/25 120/126/24 100/105/140 101/106/141
f 122/128/27 121/127/25 101/106/141 102/107/142
f 103/108/29 122/128/27 102/107/142 83/87/123
f 124/130/143 123/129/144 40/42/96 41/43/98
f 125/131/145 124/130/143 41/43/98 42/44/100
f 126/132/146 125/131/145 42/44/100 23/24/63
f 127/133/147 126/132/146 23/24/63 24/25/62
f 128/134/148 127/133/147 24/25/62 25/26/66
f 129/135/149 128/134/148 25/26/66 26/27/68
f 130/136/150 129/135/149 26/27/68 27/28/70
f 131/137/151 130/136/150 27/28/70 28/29/72
f 132/138/152 131/137/151 28/29/72 29/30/74
f 133/139/153 132/138/152 29/30/74 30/31/76
f 134/141/154 133/139/153 30/31/76 31/33/78
f 135/142/155 134/140/154 31/32/78 32/34/80
f 136/143/156 135/142/155 32/34/80 33/35/82
f 137/144/157 136/143/156 33/35/82 34/36/84
f 138/145/158 137/144/157 34/36/84 35/37/86
f 139/146/159 138/145/158 35/37/86 36/38/88
f 140/147/160 139/146/159 36/38/88 37/39/90
f 141/148/161 140/147/160 37/39/90 38/40/92
f 142/149/162 141/148/161 38/40/92 39/41/94
f 123/129/144 142/149/162 39/41/94 40/42/96
f 144/151/12 143/150/13 123/129/144 124/130/143
f 145/152/11 144/151/12 124/130/143 125/131/145
f 146/153/10 145/152/11 125/131/145 126/132/146
f 147/154/9 146/153/10 126/132/146 127/133/147
f 148/155/8 147/154/9 127/133/147 128/134/148
f 149/156/7 148/155/8 128/134/148 129/135/149
f 150/157/6 149/156/7 129/135/149 130/136/150
f 151/158/5 150/157/6 130/136/150 131/137/151
f 152/159/4 151/158/5 131/137/151 132/138/152
f 153/160/2 152/159/4 132/138/152 133/139/153
f 154/162/3 153/160/2 133/139/153 134/141/154
f 155/163/21 154/161/3 134/140/154 135/142/155
f 156/164/20 155/163/21 135/142/155 136/143/156
f 157/165/19 156/164/20 136/143/156 137/144/157
f 158/166/18 157/165/19 137/144/157 138/145/158
f 159/167/17 158/166/18 138/145/158 139/146/159
f 160/168/16 159/167/17 139/146/159 140/147/160
f 161/169/15 160/168/16 140/147/160 141/148/161
f 162/170/14 161/169/15 141/148/161 142/149/162
f 143/150/13 162/170/14 142/149/162 123/129/144
